<?xml version="1.0" encoding="UTF-8"?><svg id="Layer_1" xmlns="http://www.w3.org/2000/svg" viewBox="0 0 32 32"><defs><style>.cls-1,.cls-2{stroke-width:.5px;}.cls-1,.cls-2,.cls-3,.cls-4,.cls-5{stroke-miterlimit:10;}.cls-1,.cls-3,.cls-4,.cls-5{fill:#ffaf1b;stroke:#ffaf1b;}.cls-2{fill:#fff;stroke:#fff;}.cls-3{font-size:10.88px;}.cls-3,.cls-5{font-family:Skia-Regular, Skia;font-variation-settings:'wght' 1, 'wdth' 1;}.cls-5{font-size:17.62px;}</style></defs><text class="cls-3" transform="translate(11.06 24.48) scale(1.14 1)"><tspan x="0" y="0">C</tspan></text><text class="cls-5" transform="translate(8.58 18.37) scale(1.1 1)"><tspan x="0" y="0">C</tspan></text><path class="cls-4" d="m16.66,16.98c-.28-.05-.34-.79-.35-.87-.02-.26.02-.27.09-1.05.03-.38.05-.57.04-.78,0-.37-.05-.38-.04-.7,0-.24.03-.36,0-.61-.05-.32-.13-.39-.16-.41-.09-.06-.15,0-.39-.05-.13-.02-.22-.06-.37-.12-.16-.07-.28-.13-.39-.19-.11-.06-.17-.09-.23-.14-.12-.09-.2-.19-.27-.27-.1-.13-.18-.22-.25-.37-.09-.19-.1-.35-.11-.53-.01-.19-.02-.3.05-.35.02-.02.06-.03.27,0,.23.03.39.08.42.09.05.01.14.04.34.11.28.09.32.1.37.12.14.05.22.08.32.14.06.03.15.09.25.18.11.1.17.2.23.28.07.11.17.27.23.5.06.24.09.37.09.37.03.11.04.17.07.18.04.01.08-.07.23-.23.04-.05.09-.1.19-.19.12-.12.18-.18.23-.21.07-.05.15-.09.3-.16.08-.04.15-.07.28-.12.14-.06.22-.09.27-.11.11-.03.2-.04.3-.05.06,0,.05,0,.32-.02.15,0,.32-.02.32-.02h0s.18-.02.18-.02c.09.01.15.08.16.09.03.04.07.1.05.32,0,.13-.02.25-.07.41-.06.16-.13.27-.28.48-.13.19-.2.28-.32.35-.1.06-.13.05-.21.12-.13.11-.11.19-.23.27-.08.05-.16.07-.25.09-.09.02-.21.04-.21.04h0c-.26,0-.34,0-.34,0-.12,0-.22.03-.27.04-.06.01-.18.04-.18.04h0s-.13.02-.18.09c-.04.05-.02.1-.02.19,0,.11-.03.22-.09.42-.04.15-.06.16-.07.25-.01.1,0,.12,0,.25,0,.15-.04.16-.04.28,0,.11.03.11.04.23.01.14-.02.15-.04.35,0,.04,0,.13,0,.32,0,.18,0,.2,0,.28,0,.1-.02.23-.02.23h0s.05.24-.04.37c-.05.07-.16.13-.25.11Z"/><path class="cls-2" d="m17.42,12.82h0c.04-.08.11-.19.2-.31.07-.08.19-.23.39-.36.1-.06.19-.1.36-.17.12-.05.22-.08.32-.12.15-.05.23-.08.29-.09.15-.02.32,0,.32,0h0c.02.06.04.16,0,.27-.03.07-.09.12-.2.22-.04.03-.12.1-.26.19-.05.03-.17.11-.32.19-.15.08-.26.12-.34.15-.1.04-.22.09-.39.14-.1.03-.23.06-.39.09"/><path class="cls-2" d="m14.73,11.11c-.03.05.07.18.15.26.07.07.09.05.27.17.14.09.15.11.24.15.11.06.12.03.22.09.15.07.15.13.27.17.02,0,.18.06.22,0,.05-.06-.06-.22-.1-.27-.11-.15-.24-.24-.32-.29-.13-.08-.24-.12-.32-.15-.12-.04-.21-.07-.29-.09-.21-.05-.32-.07-.34-.03Z"/><path class="cls-1" d="m14.04,26.69c.07-.17.19-.27.22-.29.12-.1.24-.13.32-.15.37-.08.7-.04,1.07-.02.22,0,.43,0,.85-.02.43-.02.51-.04.88-.05.15,0,.35,0,.73.02.2,0,.31.02.44.07.09.04.25.11.37.29.12.19.1.38.1.44-.01.15-.08.26-.12.34-.02.03-.12.2-.24.29-.2.15-.43.1-.76.07-.54-.05-.33.03-1.22-.02-.58-.04-.64-.07-.95-.05-.46.03-.63.05-.63.05-.24.03-.37.06-.56.02-.11-.02-.25-.05-.37-.17-.13-.13-.15-.28-.17-.37-.04-.24.03-.42.05-.46Z"/><path class="cls-1" d="m15.36,28.49s.08-.05.51-.02c.32.02.32.03.44.02.19-.01.23-.05.41-.05.11,0,.21,0,.32.05.05.02.19.08.27.22.13.22.02.46,0,.51-.04.1-.1.16-.2.27-.09.1-.15.17-.24.22-.03.02-.1.05-.41.07-.24.02-.35.02-.49,0-.12-.02-.25-.05-.39-.15-.15-.11-.21-.24-.24-.29-.02-.04-.09-.19-.1-.39,0-.15,0-.36.12-.46Z"/><path class="cls-4" d="m4.87,9.39c-.02-.05-.09-.27,0-.36.15-.13.5.27,1.29.51.46.14.73.12.87.36.08.15.1.36,0,.45-.11.1-.28-.02-.87-.21-.5-.16-.68-.17-.96-.36-.18-.12-.28-.24-.33-.39Z"/><path class="cls-4" d="m25.64,9.09s.26.12.26.24c0,.2-.54.19-1.24.61-.42.25-.59.46-.85.4-.16-.04-.33-.17-.33-.3,0-.15.21-.19.74-.5.46-.26.58-.39.91-.46.21-.05.36-.05.51.02Z"/><path class="cls-4" d="m8.94,4.8c-.12-.27-.1-.33-.09-.36.05-.11.23-.16.36-.12.12.04.14.13.34.43.16.24.24.36.36.48.15.15.22.17.29.31.05.09.14.25.07.4-.05.11-.19.2-.31.19-.13-.01-.16-.13-.43-.45-.21-.25-.24-.23-.36-.41-.11-.16-.16-.28-.24-.46Z"/><path class="cls-4" d="m21.98,4.76c.25-.16.3-.16.34-.15.12.03.2.2.18.33-.01.12-.1.16-.36.42-.21.2-.31.3-.41.44-.12.17-.13.24-.25.34-.08.06-.22.18-.38.14-.12-.03-.23-.15-.24-.27-.01-.13.1-.19.36-.5.21-.25.19-.27.34-.43.14-.14.24-.21.41-.32Z"/><path class="cls-4" d="m13.75,1.75s.12-.17.28-.17c.09,0,.18.05.24.12.12.15.01.3,0,.74,0,.25.03.22.02.52,0,.35-.05.38-.02.59.03.23.11.31.05.4-.06.1-.23.14-.36.09-.14-.05-.21-.19-.24-.26-.12-.29.03-.43.02-.93,0-.14-.02-.3-.05-.64-.02-.22-.04-.35.05-.47Z"/><path class="cls-4" d="m17.5,1.75s.12-.17.28-.17c.09,0,.18.05.24.12.12.15.01.3,0,.74,0,.25.03.22.02.52,0,.35-.05.38-.02.59.03.23.11.31.05.4-.06.1-.23.14-.36.09-.14-.05-.21-.19-.24-.26-.12-.29.03-.43.02-.93,0-.14-.02-.3-.05-.64-.02-.22-.04-.35.05-.47Z"/><path class="cls-4" d="m4.36,15.04s-.18-.11-.18-.28c0-.09.04-.18.11-.24.14-.12.3-.03.73-.04.25,0,.22-.04.52-.05.35-.01.38.03.59,0,.23-.05.3-.12.4-.07.1.06.15.22.11.35-.04.15-.18.22-.25.25-.28.14-.43,0-.93.03-.14,0-.3.03-.64.08-.22.03-.35.05-.48-.02Z"/><path class="cls-4" d="m24.25,15.04s-.18-.11-.18-.28c0-.09.04-.18.11-.24.14-.12.3-.03.73-.04.25,0,.22-.04.52-.05.35-.01.38.03.59,0,.23-.05.3-.12.4-.07.1.06.15.22.11.35-.04.15-.18.22-.25.25-.28.14-.43,0-.93.03-.14,0-.3.03-.64.08-.22.03-.35.05-.48-.02Z"/></svg>