<?xml version="1.0" encoding="UTF-8"?><svg id="Layer_2" xmlns="http://www.w3.org/2000/svg" viewBox="0 0 786.59 338.98"><defs><style>.cls-1{fill:none;}.cls-2{font-size:145.13px;}.cls-2,.cls-3,.cls-4{fill:#ffaf1b;stroke:#ffaf1b;stroke-miterlimit:10;}.cls-2,.cls-4{font-family:Skia-Regular, Skia;font-variation-settings:'wght' 1, 'wdth' 1;stroke-width:10px;}.cls-3{stroke-width:2px;}.cls-4{font-size:89.57px;}</style></defs><g id="Layer_1-2"><rect class="cls-1" width="786.59" height="338.98"/><text class="cls-4" transform="translate(305.27 212.1) scale(1.14 1)"><tspan x="0" y="0">C</tspan></text><text class="cls-2" transform="translate(284.85 161.77) scale(1.1 1)"><tspan x="0" y="0">C</tspan></text><path class="cls-3" d="m329.8,230.29c.61-1.43,1.58-2.23,1.81-2.41.99-.79,2-1.06,2.61-1.21,3.01-.7,5.75-.31,8.84-.2,1.8.06,3.54-.02,7.03-.2,3.54-.18,4.18-.34,7.23-.4,1.26-.03,2.85.05,6.03.2,1.65.08,2.53.14,3.62.6.71.3,2.09.91,3.01,2.41.98,1.58.85,3.17.8,3.62-.12,1.27-.63,2.15-1,2.81-.16.28-.95,1.63-2.01,2.41-1.62,1.2-3.55.85-6.23.6-4.46-.41-2.68.24-10.05-.2-4.78-.29-5.27-.55-7.84-.4-3.82.22-5.22.4-5.22.4-1.97.26-3.02.53-4.62.2-.87-.18-2.03-.43-3.01-1.41-1.04-1.04-1.28-2.3-1.41-3.01-.36-1.96.26-3.49.4-3.82Z"/><path class="cls-3" d="m340.73,245.16c.28-.22.68-.41,4.22-.2,2.67.16,2.63.27,3.62.2,1.53-.11,1.86-.41,3.42-.4.95,0,1.71.02,2.61.4.44.18,1.55.66,2.21,1.81,1.04,1.8.17,3.82,0,4.22-.34.79-.78,1.29-1.61,2.21-.77.86-1.25,1.39-2.01,1.81-.23.13-.83.42-3.42.6-1.94.13-2.91.2-4.02,0-.95-.17-2.07-.37-3.21-1.21-1.2-.87-1.77-1.94-2.01-2.41-.19-.36-.76-1.55-.8-3.21-.03-1.2-.08-2.97,1-3.82Z"/></g></svg>