<?xml version="1.0" encoding="UTF-8"?><svg id="Layer_2" xmlns="http://www.w3.org/2000/svg" viewBox="0 0 786.59 338.98"><defs><style>.cls-1{fill:none;}.cls-2{font-size:145.13px;}.cls-2,.cls-3,.cls-4{fill:#ffaf1b;stroke:#ffaf1b;stroke-miterlimit:10;}.cls-2,.cls-4{font-family:Skia-Regular, Skia;font-variation-settings:'wght' 1, 'wdth' 1;stroke-width:10px;}.cls-3{stroke-width:2px;}.cls-4{font-size:89.57px;}</style></defs><g id="Layer_1-2"><rect class="cls-1" width="786.59" height="338.98"/><text class="cls-4" transform="translate(305.27 212.1) scale(1.14 1)"><tspan x="0" y="0">C</tspan></text><text class="cls-2" transform="translate(284.85 161.77) scale(1.1 1)"><tspan x="0" y="0">C</tspan></text><path class="cls-3" d="m329.8,230.29c.61-1.43,1.58-2.23,1.81-2.41.99-.79,2-1.06,2.61-1.21,3.01-.7,5.75-.31,8.84-.2,1.8.06,3.54-.02,7.03-.2,3.54-.18,4.18-.34,7.23-.4,1.26-.03,2.85.05,6.03.2,1.65.08,2.53.14,3.62.6.71.3,2.09.91,3.01,2.41.98,1.58.85,3.17.8,3.62-.12,1.27-.63,2.15-1,2.81-.16.28-.95,1.63-2.01,2.41-1.62,1.2-3.55.85-6.23.6-4.46-.41-2.68.24-10.05-.2-4.78-.29-5.27-.55-7.84-.4-3.82.22-5.22.4-5.22.4-1.97.26-3.02.53-4.62.2-.87-.18-2.03-.43-3.01-1.41-1.04-1.04-1.28-2.3-1.41-3.01-.36-1.96.26-3.49.4-3.82Z"/><path class="cls-3" d="m340.73,245.16c.28-.22.68-.41,4.22-.2,2.67.16,2.63.27,3.62.2,1.53-.11,1.86-.41,3.42-.4.95,0,1.71.02,2.61.4.44.18,1.55.66,2.21,1.81,1.04,1.8.17,3.82,0,4.22-.34.79-.78,1.29-1.61,2.21-.77.86-1.25,1.39-2.01,1.81-.23.13-.83.42-3.42.6-1.94.13-2.91.2-4.02,0-.95-.17-2.07-.37-3.21-1.21-1.2-.87-1.77-1.94-2.01-2.41-.19-.36-.76-1.55-.8-3.21-.03-1.2-.08-2.97,1-3.82Z"/><path class="cls-3" d="m254.25,87.83c-.14-.42-.75-2.26,0-2.96,1.19-1.11,4.14,2.22,10.6,4.19,3.8,1.16,6.04,1.01,7.15,2.96.68,1.2.81,2.97,0,3.7-.9.81-2.35-.2-7.15-1.73-4.15-1.32-5.58-1.37-7.89-2.96-1.44-1-2.3-1.96-2.71-3.21Z"/><path class="cls-3" d="m425.34,85.37c.4.18,2.17.97,2.18,2,.01,1.63-4.43,1.56-10.25,4.99-3.43,2.02-4.82,3.77-7.01,3.27-1.34-.31-2.74-1.4-2.73-2.5,0-1.21,1.73-1.6,6.1-4.11,3.77-2.17,4.78-3.2,7.51-3.82,1.71-.39,3-.37,4.2.16Z"/><path class="cls-3" d="m287.84,50.07c-.96-2.22-.85-2.69-.71-2.98.44-.89,1.88-1.32,2.98-.99.98.29,1.16,1.05,2.83,3.54,1.31,1.96,1.97,2.94,2.98,3.97,1.23,1.25,1.78,1.41,2.41,2.55.41.73,1.13,2.04.57,3.26-.43.93-1.53,1.66-2.55,1.56-1.09-.11-1.36-1.08-3.54-3.68-1.73-2.06-1.95-1.91-2.98-3.4-.9-1.31-1.32-2.28-1.98-3.83Z"/><path class="cls-3" d="m395.22,49.72c2.02-1.34,2.5-1.32,2.8-1.23.95.28,1.63,1.62,1.51,2.75-.11,1.02-.82,1.33-2.98,3.42-1.7,1.64-2.55,2.46-3.37,3.63-1.02,1.43-1.07,2-2.08,2.82-.65.53-1.8,1.48-3.11,1.14-.99-.26-1.9-1.21-1.99-2.23-.09-1.09.82-1.53,3-4.14,1.72-2.07,1.53-2.26,2.82-3.53,1.13-1.12,2.01-1.7,3.41-2.63Z"/><path class="cls-3" d="m327.41,24.94c.1-.15.98-1.39,2.34-1.37.73.01,1.49.39,1.95.98.96,1.21.09,2.51,0,6.06-.05,2.1.24,1.8.2,4.3-.06,2.88-.45,3.13-.2,4.88.27,1.89.87,2.56.39,3.32-.52.83-1.89,1.13-2.93.78-1.18-.4-1.7-1.55-1.95-2.15-1.02-2.38.25-3.54.2-7.62-.02-1.12-.14-2.51-.39-5.28-.17-1.84-.29-2.91.39-3.91Z"/><path class="cls-3" d="m358.31,24.94c.1-.15.98-1.39,2.34-1.37.73.01,1.49.39,1.95.98.96,1.21.09,2.51,0,6.06-.05,2.1.24,1.8.2,4.3-.06,2.88-.45,3.13-.2,4.88.27,1.89.87,2.56.39,3.32-.52.83-1.89,1.13-2.93.78-1.18-.4-1.7-1.55-1.95-2.15-1.02-2.38.25-3.54.2-7.62-.02-1.12-.14-2.51-.39-5.28-.17-1.84-.29-2.91.39-3.91Z"/><path class="cls-3" d="m250.09,134.34c-.16-.1-1.44-.9-1.49-2.27-.03-.73.31-1.51.87-2,1.15-1.02,2.5-.23,6.05-.33,2.1-.06,1.78-.34,4.28-.43,2.88-.1,3.15.28,4.89-.07,1.88-.37,2.51-1.01,3.3-.57.86.47,1.23,1.83.94,2.88-.33,1.2-1.46,1.78-2.04,2.07-2.32,1.15-3.55-.06-7.62.22-1.12.08-2.49.28-5.25.68-1.83.27-2.89.45-3.92-.18Z"/><path class="cls-3" d="m413.93,134.34c-.16-.1-1.44-.9-1.49-2.27-.03-.73.31-1.51.87-2,1.15-1.02,2.5-.23,6.05-.33,2.1-.06,1.78-.34,4.28-.43,2.88-.1,3.15.28,4.89-.07,1.88-.37,2.51-1.01,3.3-.57.86.47,1.23,1.83.94,2.88-.33,1.2-1.46,1.78-2.04,2.07-2.32,1.15-3.55-.06-7.62.22-1.12.08-2.49.28-5.25.68-1.83.27-2.89.45-3.92-.18Z"/></g></svg>